<svg width="35" height="35" viewBox="0 0 35 35" fill="none" xmlns="http://www.w3.org/2000/svg">
<path d="M13.2561 13.1251C13.5989 12.1504 14.2757 11.3286 15.1665 10.8051C16.0573 10.2816 17.1045 10.0902 18.1228 10.2649C19.1412 10.4395 20.0648 10.969 20.7302 11.7594C21.3955 12.5498 21.7598 13.5502 21.7582 14.5834C21.7582 17.5001 17.3832 18.9584 17.3832 18.9584M17.4998 24.7917H17.5144M32.0832 17.5001C32.0832 25.5542 25.5539 32.0834 17.4998 32.0834C9.44568 32.0834 2.9165 25.5542 2.9165 17.5001C2.9165 9.44592 9.44568 2.91675 17.4998 2.91675C25.5539 2.91675 32.0832 9.44592 32.0832 17.5001Z" stroke="black" stroke-width="2" stroke-linecap="round" stroke-linejoin="round"/>
</svg>
