<svg width="35" height="35" viewBox="0 0 35 35" fill="none" xmlns="http://www.w3.org/2000/svg">
<path d="M13.125 16.0417L16.0417 18.9583L22.6042 12.3958M14.4375 28L16.5667 30.8389C16.8833 31.2611 17.0416 31.4721 17.2358 31.5477C17.4056 31.6137 17.5944 31.6137 17.7643 31.5477C17.9584 31.4721 18.1167 31.2611 18.4333 30.8389L20.5625 28C20.9899 27.4299 21.2037 27.145 21.4645 26.9274C21.8121 26.6373 22.2225 26.432 22.6632 26.328C22.9937 26.25 23.35 26.25 24.0625 26.25C26.101 26.25 27.1202 26.25 27.9243 25.9169C28.9962 25.473 29.848 24.6212 30.2919 23.5493C30.625 22.7452 30.625 21.726 30.625 19.6875V11.375C30.625 8.92477 30.625 7.69965 30.1481 6.76379C29.7287 5.94058 29.0595 5.27129 28.2362 4.85185C27.3003 4.375 26.0753 4.375 23.625 4.375H11.375C8.92477 4.375 7.69965 4.375 6.76379 4.85185C5.94058 5.27129 5.27129 5.94058 4.85185 6.76379C4.375 7.69965 4.375 8.92477 4.375 11.375V19.6875C4.375 21.726 4.375 22.7452 4.70802 23.5493C5.15206 24.6212 6.00377 25.473 7.07576 25.9169C7.87975 26.25 8.89901 26.25 10.9375 26.25C11.65 26.25 12.0063 26.25 12.3368 26.328C12.7775 26.432 13.1879 26.6373 13.5355 26.9274C13.7962 27.145 14.01 27.4299 14.4375 28Z" stroke="black" stroke-width="2" stroke-linecap="round" stroke-linejoin="round"/>
</svg>
