<svg width="29" height="33" viewBox="0 0 29 33" fill="none" xmlns="http://www.w3.org/2000/svg">
<path d="M27.625 13.5834H1.375M20.3333 1.91675V7.75008M8.66667 1.91675V7.75008M10.125 22.3334L13.0417 25.2501L19.6042 18.6876M8.375 31.0834H20.625C23.0753 31.0834 24.3003 31.0834 25.2362 30.6065C26.0595 30.1871 26.7287 29.5179 27.1481 28.6947C27.625 27.7587 27.625 26.5337 27.625 24.0834V11.8334C27.625 9.38318 27.625 8.15806 27.1481 7.22221C26.7287 6.39899 26.0595 5.72971 25.2362 5.31026C24.3003 4.83341 23.0753 4.83341 20.625 4.83341H8.375C5.92477 4.83341 4.69965 4.83341 3.76379 5.31026C2.94058 5.72971 2.27129 6.39899 1.85185 7.22221C1.375 8.15806 1.375 9.38318 1.375 11.8334V24.0834C1.375 26.5337 1.375 27.7587 1.85185 28.6947C2.27129 29.5179 2.94058 30.1871 3.76379 30.6065C4.69965 31.0834 5.92477 31.0834 8.375 31.0834Z" stroke="white" stroke-width="2" stroke-linecap="round" stroke-linejoin="round"/>
</svg>
