<svg width="35" height="35" viewBox="0 0 35 35" fill="none" xmlns="http://www.w3.org/2000/svg">
<path d="M30.625 14.5833H4.375M23.3333 2.91663V8.74996M11.6667 2.91663V8.74996M15.3125 20.4166L17.5 18.9583V26.25M15.6771 26.25H19.3229M11.375 32.0833H23.625C26.0753 32.0833 27.3003 32.0833 28.2362 31.6064C29.0595 31.187 29.7287 30.5178 30.1481 29.6945C30.625 28.7586 30.625 27.5336 30.625 25.0833V12.8333C30.625 10.3831 30.625 9.15794 30.1481 8.22209C29.7287 7.39887 29.0595 6.72958 28.2362 6.31014C27.3003 5.83329 26.0753 5.83329 23.625 5.83329H11.375C8.92477 5.83329 7.69965 5.83329 6.76379 6.31014C5.94058 6.72958 5.27129 7.39887 4.85185 8.22209C4.375 9.15794 4.375 10.3831 4.375 12.8333V25.0833C4.375 27.5336 4.375 28.7586 4.85185 29.6945C5.27129 30.5178 5.94058 31.187 6.76379 31.6064C7.69965 32.0833 8.92477 32.0833 11.375 32.0833Z" stroke="black" stroke-width="2" stroke-linecap="round" stroke-linejoin="round"/>
</svg>
