<svg width="34" height="34" viewBox="0 0 34 34" fill="none" xmlns="http://www.w3.org/2000/svg">
<path d="M26.4997 13.8332L20.1664 7.49991M1.95801 32.0416L7.31659 31.4462C7.97129 31.3734 8.29862 31.337 8.6046 31.238C8.87605 31.1502 9.13439 31.026 9.37258 30.869C9.64105 30.6918 9.87395 30.459 10.3397 29.9932L31.2497 9.08324C32.9987 7.33434 32.9987 4.49881 31.2497 2.74991C29.5008 1.00101 26.6653 1.00101 24.9164 2.74991L4.00641 23.6599C3.54063 24.1257 3.30772 24.3585 3.13069 24.627C2.97361 24.8653 2.84944 25.1235 2.76157 25.3951C2.66253 25.701 2.62614 26.0282 2.5534 26.6829L1.95801 32.0416Z" stroke="white" stroke-width="2" stroke-linecap="round" stroke-linejoin="round"/>
</svg>
