<svg width="35" height="35" viewBox="0 0 35 35" fill="none" xmlns="http://www.w3.org/2000/svg">
<path d="M13.125 30.6251V19.8334C13.125 19.0166 13.125 18.6083 13.2839 18.2963C13.4238 18.0219 13.6469 17.7989 13.9213 17.6591C14.2332 17.5001 14.6415 17.5001 15.4583 17.5001H19.5417C20.3585 17.5001 20.7668 17.5001 21.0788 17.6591C21.3532 17.7989 21.5762 18.0219 21.716 18.2963C21.875 18.6083 21.875 19.0166 21.875 19.8334V30.6251M16.0675 4.03093L6.17661 11.7238C5.51545 12.2381 5.18487 12.4952 4.94671 12.8172C4.73575 13.1024 4.57858 13.4237 4.48296 13.7654C4.375 14.1511 4.375 14.5699 4.375 15.4075V25.9584C4.375 27.5919 4.375 28.4086 4.6929 29.0326C4.97252 29.5814 5.41871 30.0276 5.96753 30.3072C6.59143 30.6251 7.40817 30.6251 9.04167 30.6251H25.9583C27.5918 30.6251 28.4086 30.6251 29.0325 30.3072C29.5813 30.0276 30.0275 29.5814 30.3071 29.0326C30.625 28.4086 30.625 27.5919 30.625 25.9584V15.4075C30.625 14.5699 30.625 14.1511 30.5171 13.7654C30.4214 13.4237 30.2642 13.1024 30.0533 12.8172C29.8152 12.4952 29.4846 12.2381 28.8234 11.7238L18.9325 4.03093C18.4202 3.63244 18.164 3.43318 17.8811 3.35659C17.6315 3.28901 17.3685 3.28901 17.1189 3.35659C16.836 3.43318 16.5798 3.63244 16.0675 4.03093Z" stroke="black" stroke-width="2" stroke-linecap="round" stroke-linejoin="round"/>
</svg>
