<svg width="33" height="29" viewBox="0 0 33 29" fill="none" xmlns="http://www.w3.org/2000/svg">
<path d="M17.9582 4.29167C17.9582 5.9025 14.3672 7.20833 9.93734 7.20833C5.50755 7.20833 1.9165 5.9025 1.9165 4.29167M17.9582 4.29167C17.9582 2.68084 14.3672 1.375 9.93734 1.375C5.50755 1.375 1.9165 2.68084 1.9165 4.29167M17.9582 4.29167V6.47917M1.9165 4.29167V21.7917C1.9165 23.4025 5.50755 24.7083 9.93734 24.7083M9.93734 13.0417C9.69153 13.0417 9.44833 13.0376 9.20817 13.0297C5.1201 12.8958 1.9165 11.6465 1.9165 10.125M9.93734 18.875C5.50755 18.875 1.9165 17.5692 1.9165 15.9583M31.0832 13.7708C31.0832 15.3817 27.4922 16.6875 23.0623 16.6875C18.6325 16.6875 15.0415 15.3817 15.0415 13.7708M31.0832 13.7708C31.0832 12.16 27.4922 10.8542 23.0623 10.8542C18.6325 10.8542 15.0415 12.16 15.0415 13.7708M31.0832 13.7708V24.7083C31.0832 26.3192 27.4922 27.625 23.0623 27.625C18.6325 27.625 15.0415 26.3192 15.0415 24.7083V13.7708M31.0832 19.2396C31.0832 20.8505 27.4922 22.1563 23.0623 22.1563C18.6325 22.1563 15.0415 20.8505 15.0415 19.2396" stroke="white" stroke-width="2" stroke-linecap="round" stroke-linejoin="round"/>
</svg>
