<svg width="414" height="126" viewBox="0 0 414 126" fill="none" xmlns="http://www.w3.org/2000/svg">
<path fill-rule="evenodd" clip-rule="evenodd" d="M6.53524 117.546C5.46387 121.447 2.49017 122.034 0.0509028 118.569C-2.10154 115.511 -0.844235 113.07 2.87832 113.017C5.68698 112.978 7.30137 114.757 6.53524 117.546Z" fill="#100F0D" fill-opacity="0.45"/>
<path fill-rule="evenodd" clip-rule="evenodd" d="M9.92514 108.071C10.6268 108.798 10.2742 110.277 9.13766 111.373C8.00111 112.47 6.51087 112.769 5.80913 112.041C5.1075 111.314 5.46007 109.836 6.59661 108.739C7.73316 107.642 9.22351 107.344 9.92514 108.071Z" fill="#100F0D" fill-opacity="0.45"/>
<path fill-rule="evenodd" clip-rule="evenodd" d="M13.1028 112.317C13.6645 113.156 13.056 114.549 11.7431 115.427C10.4306 116.305 8.91073 116.336 8.34895 115.495C7.78694 114.655 8.39571 113.262 9.70849 112.384C11.0211 111.507 12.5408 111.476 13.1028 112.317Z" fill="#100F0D" fill-opacity="0.45"/>
<path fill-rule="evenodd" clip-rule="evenodd" d="M12.3061 117.98C12.7177 118.899 11.9444 120.097 10.5791 120.656C9.2138 121.214 7.77349 120.921 7.36196 120.003C6.95054 119.083 7.72368 117.886 9.08898 117.327C10.4543 116.769 11.8946 117.061 12.3061 117.98Z" fill="#100F0D" fill-opacity="0.45"/>
<path fill-rule="evenodd" clip-rule="evenodd" d="M4.42899 107.372C3.66817 106.712 2.2979 107.106 1.36853 108.251C0.439163 109.397 0.302474 110.861 1.0633 111.52C1.82435 112.18 3.1945 111.786 4.12387 110.64C5.05346 109.495 5.19004 108.032 4.42899 107.372Z" fill="#100F0D" fill-opacity="0.45"/>
<path fill-rule="evenodd" clip-rule="evenodd" d="M33.8418 122.607C32.7706 126.507 29.7968 127.095 27.3576 123.63C25.2051 120.572 26.4624 118.131 30.185 118.079C32.9938 118.039 34.608 119.818 33.8418 122.607Z" fill="#100F0D" fill-opacity="0.45"/>
<path fill-rule="evenodd" clip-rule="evenodd" d="M37.232 113.132C37.9336 113.86 37.5811 115.339 36.4443 116.434C35.3078 117.531 33.8176 117.831 33.1158 117.103C32.4141 116.376 32.7667 114.897 33.9033 113.8C35.0399 112.704 36.53 112.405 37.232 113.132Z" fill="#100F0D" fill-opacity="0.45"/>
<path fill-rule="evenodd" clip-rule="evenodd" d="M40.4097 117.378C40.9717 118.218 40.363 119.611 39.0502 120.489C37.7375 121.366 36.218 121.397 35.656 120.556C35.0941 119.717 35.7028 118.324 37.0156 117.445C38.3281 116.568 39.848 116.537 40.4097 117.378Z" fill="#100F0D" fill-opacity="0.45"/>
<path fill-rule="evenodd" clip-rule="evenodd" d="M39.613 123.041C40.0246 123.96 39.2513 125.159 37.8861 125.717C36.521 126.275 35.0807 125.983 34.6691 125.064C34.2576 124.144 35.0306 122.947 36.3959 122.388C37.7612 121.83 39.2016 122.122 39.613 123.041Z" fill="#100F0D" fill-opacity="0.45"/>
<path fill-rule="evenodd" clip-rule="evenodd" d="M31.7356 112.433C30.9748 111.773 29.6046 112.168 28.675 113.313C27.7458 114.458 27.6091 115.921 28.37 116.581C29.1309 117.241 30.5011 116.847 31.4306 115.701C32.36 114.557 32.4967 113.093 31.7356 112.433Z" fill="#100F0D" fill-opacity="0.45"/>
<path fill-rule="evenodd" clip-rule="evenodd" d="M38.6843 87.9421C36.7135 91.4746 33.6854 91.3357 32.1433 87.3886C30.7822 83.9058 32.5857 81.8348 36.2134 82.6719C38.9504 83.3035 40.0936 85.4162 38.6843 87.9421Z" fill="#100F0D" fill-opacity="0.45"/>
<path fill-rule="evenodd" clip-rule="evenodd" d="M44.2367 79.5493C44.7447 80.4232 44.0495 81.7749 42.6842 82.5684C41.3187 83.3619 39.8001 83.297 39.2922 82.4233C38.7843 81.5494 39.4795 80.1978 40.8448 79.4039C42.2102 78.6104 43.7288 78.6755 44.2367 79.5493Z" fill="#100F0D" fill-opacity="0.45"/>
<path fill-rule="evenodd" clip-rule="evenodd" d="M46.3097 84.43C46.6548 85.38 45.7313 86.5873 44.2471 87.1267C42.7629 87.6661 41.2798 87.3333 40.9347 86.3834C40.5894 85.4335 41.5127 84.2262 42.997 83.6867C44.4813 83.1474 45.9643 83.4802 46.3097 84.43Z" fill="#100F0D" fill-opacity="0.45"/>
<path fill-rule="evenodd" clip-rule="evenodd" d="M44.1851 89.7405C44.3655 90.7312 43.3287 91.7095 41.8697 91.9264C40.4107 92.1433 39.0815 91.5152 38.9012 90.5245C38.7209 89.5338 39.7575 88.5551 41.2167 88.3385C42.6756 88.1217 44.0047 88.7492 44.1851 89.7405Z" fill="#100F0D" fill-opacity="0.45"/>
<path fill-rule="evenodd" clip-rule="evenodd" d="M39.0658 77.5591C38.4843 76.7372 37.0596 76.7926 35.8839 77.6832C34.708 78.574 34.2262 79.9625 34.8076 80.7846C35.3894 81.6067 36.8138 81.5511 37.9898 80.6606C39.1656 79.7699 39.6474 78.3814 39.0658 77.5591Z" fill="#100F0D" fill-opacity="0.45"/>
<path fill-rule="evenodd" clip-rule="evenodd" d="M63.9954 99.372C62.0245 102.903 58.9965 102.764 57.4543 98.8184C56.0933 95.3346 57.8967 93.2639 61.5244 94.101C64.2615 94.7325 65.405 96.8449 63.9954 99.372Z" fill="#100F0D" fill-opacity="0.45"/>
<path fill-rule="evenodd" clip-rule="evenodd" d="M69.5482 90.9787C70.0561 91.853 69.3609 93.2041 67.9957 93.9982C66.6302 94.7912 65.1118 94.7268 64.6037 93.8525C64.0958 92.9781 64.791 91.6271 66.1562 90.8341C67.5217 90.0399 69.0403 90.1043 69.5482 90.9787Z" fill="#100F0D" fill-opacity="0.45"/>
<path fill-rule="evenodd" clip-rule="evenodd" d="M71.6211 95.8599C71.9663 96.8099 71.0428 98.0164 69.5586 98.5564C68.0744 99.0952 66.5914 98.7631 66.2462 97.8131C65.901 96.863 66.8242 95.6554 68.3084 95.1166C69.7928 94.5766 71.2759 94.9099 71.6211 95.8599Z" fill="#100F0D" fill-opacity="0.45"/>
<path fill-rule="evenodd" clip-rule="evenodd" d="M69.4961 101.169C69.6764 102.16 68.6397 103.139 67.1807 103.356C65.7216 103.572 64.3926 102.945 64.2123 101.954C64.0319 100.964 65.0687 99.9843 66.5276 99.7674C67.9867 99.5516 69.3158 100.179 69.4961 101.169Z" fill="#100F0D" fill-opacity="0.45"/>
<path fill-rule="evenodd" clip-rule="evenodd" d="M64.3773 88.9888C63.7958 88.1666 62.3712 88.2221 61.1954 89.1124C60.0196 90.0037 59.5377 91.3921 60.1192 92.2145C60.7009 93.0357 62.1255 92.9804 63.3013 92.0902C64.4771 91.1989 64.959 89.8106 64.3773 88.9888Z" fill="#100F0D" fill-opacity="0.45"/>
<path fill-rule="evenodd" clip-rule="evenodd" d="M79.5993 65.2193C76.764 68.104 73.8805 67.1686 73.4379 62.9543C73.0474 59.2355 75.3345 57.7158 78.6112 59.4831C81.0838 60.8165 81.627 63.1563 79.5993 65.2193Z" fill="#100F0D" fill-opacity="0.45"/>
<path fill-rule="evenodd" clip-rule="evenodd" d="M87.1751 58.5952C87.4334 59.5724 86.4055 60.6921 84.8787 61.0958C83.352 61.4998 81.9048 61.0353 81.6462 60.0581C81.3878 59.0811 82.4157 57.9615 83.9424 57.5575C85.4692 57.1537 86.9164 57.6183 87.1751 58.5952Z" fill="#100F0D" fill-opacity="0.45"/>
<path fill-rule="evenodd" clip-rule="evenodd" d="M87.8825 63.8509C87.964 64.8584 86.7541 65.7781 85.1799 65.9056C83.6058 66.0328 82.2636 65.3195 82.1821 64.312C82.1009 63.3045 83.3107 62.3847 84.8849 62.2573C86.459 62.13 87.8011 62.8433 87.8825 63.8509Z" fill="#100F0D" fill-opacity="0.45"/>
<path fill-rule="evenodd" clip-rule="evenodd" d="M84.4284 68.4091C84.3402 69.4122 83.0814 70.082 81.6171 69.9046C80.1526 69.7276 79.0373 68.7706 79.1255 67.7674C79.2137 66.7643 80.4725 66.0948 81.9368 66.2718C83.4012 66.4491 84.5167 67.4058 84.4284 68.4091Z" fill="#100F0D" fill-opacity="0.45"/>
<path fill-rule="evenodd" clip-rule="evenodd" d="M82.7155 55.3078C82.3721 54.3612 80.9836 54.0374 79.614 54.5852C78.2443 55.133 77.4123 56.3443 77.7555 57.2912C78.0988 58.238 79.4872 58.5615 80.8569 58.0137C82.2266 57.466 83.0588 56.2546 82.7155 55.3078Z" fill="#100F0D" fill-opacity="0.45"/>
<path fill-rule="evenodd" clip-rule="evenodd" d="M100.983 82.9403C98.148 85.825 95.2651 84.8895 94.8223 80.6752C94.4314 76.9564 96.719 75.4368 99.995 77.204C102.468 78.5373 103.011 80.8772 100.983 82.9403Z" fill="#100F0D" fill-opacity="0.45"/>
<path fill-rule="evenodd" clip-rule="evenodd" d="M108.559 76.316C108.817 77.2933 107.789 78.4126 106.263 78.8167C104.736 79.2206 103.289 78.756 103.03 77.7789C102.771 76.8017 103.799 75.6824 105.327 75.2783C106.853 74.8743 108.3 75.3388 108.559 76.316Z" fill="#100F0D" fill-opacity="0.45"/>
<path fill-rule="evenodd" clip-rule="evenodd" d="M109.266 81.5717C109.348 82.5793 108.138 83.499 106.563 83.6262C104.989 83.7538 103.647 83.0404 103.565 82.0329C103.484 81.0254 104.694 80.1054 106.269 79.9781C107.842 79.8508 109.184 80.5643 109.266 81.5717Z" fill="#100F0D" fill-opacity="0.45"/>
<path fill-rule="evenodd" clip-rule="evenodd" d="M105.813 86.1299C105.723 87.1331 104.465 87.8027 103.001 87.6257C101.537 87.4482 100.421 86.4915 100.509 85.4884C100.597 84.4851 101.856 83.8156 103.321 83.9926C104.785 84.1699 105.901 85.1268 105.813 86.1299Z" fill="#100F0D" fill-opacity="0.45"/>
<path fill-rule="evenodd" clip-rule="evenodd" d="M104.1 73.0287C103.756 72.0818 102.367 71.7584 100.998 72.306C99.6285 72.8538 98.7959 74.0652 99.1393 75.012C99.4828 75.9587 100.871 76.2823 102.24 75.7347C103.611 75.1869 104.442 73.9756 104.1 73.0287Z" fill="#100F0D" fill-opacity="0.45"/>
<path fill-rule="evenodd" clip-rule="evenodd" d="M128.881 55.1278C125.371 57.1377 122.849 55.4569 123.563 51.2801C124.193 47.5943 126.806 46.7502 129.482 49.3382C131.502 51.2908 131.392 53.6905 128.881 55.1278Z" fill="#100F0D" fill-opacity="0.45"/>
<path fill-rule="evenodd" clip-rule="evenodd" d="M137.967 50.8009C137.952 51.8115 136.659 52.611 135.08 52.5869C133.501 52.5626 132.234 51.7237 132.249 50.713C132.264 49.7025 133.557 48.9028 135.136 48.927C136.715 48.9514 137.983 49.7903 137.967 50.8009Z" fill="#100F0D" fill-opacity="0.45"/>
<path fill-rule="evenodd" clip-rule="evenodd" d="M137.226 56.0518C137.031 57.0435 135.618 57.6017 134.068 57.2984C132.518 56.9951 131.419 55.9451 131.614 54.9532C131.808 53.9613 133.221 53.4032 134.771 53.7065C136.321 54.01 137.42 55.0599 137.226 56.0518Z" fill="#100F0D" fill-opacity="0.45"/>
<path fill-rule="evenodd" clip-rule="evenodd" d="M132.668 59.5051C132.311 60.4471 130.918 60.7511 129.557 60.1843C128.194 59.6174 127.38 58.3944 127.736 57.4524C128.093 56.5107 129.486 56.2068 130.847 56.7736C132.209 57.3404 133.024 58.5633 132.668 59.5051Z" fill="#100F0D" fill-opacity="0.45"/>
<path fill-rule="evenodd" clip-rule="evenodd" d="M134.563 46.4293C134.49 45.4248 133.24 44.7376 131.773 44.8944C130.307 45.051 129.178 45.9921 129.251 46.9965C129.326 48.0008 130.575 48.6879 132.042 48.5314C133.509 48.3746 134.638 47.4337 134.563 46.4293Z" fill="#100F0D" fill-opacity="0.45"/>
<path fill-rule="evenodd" clip-rule="evenodd" d="M144.672 77.9738C141.163 79.9836 138.639 78.3029 139.354 74.1263C139.984 70.4403 142.597 69.5962 145.273 72.1843C147.292 74.137 147.183 76.5365 144.672 77.9738Z" fill="#100F0D" fill-opacity="0.45"/>
<path fill-rule="evenodd" clip-rule="evenodd" d="M153.758 73.647C153.743 74.6575 152.45 75.4571 150.871 75.4329C149.292 75.4085 148.024 74.5697 148.04 73.5592C148.055 72.5485 149.348 71.749 150.926 71.7732C152.506 71.7974 153.773 72.6362 153.758 73.647Z" fill="#100F0D" fill-opacity="0.45"/>
<path fill-rule="evenodd" clip-rule="evenodd" d="M153.017 78.8977C152.823 79.8896 151.409 80.4478 149.859 80.1445C148.309 79.841 147.21 78.791 147.404 77.7991C147.598 76.8073 149.013 76.2491 150.563 76.5524C152.113 76.8557 153.211 77.9058 153.017 78.8977Z" fill="#100F0D" fill-opacity="0.45"/>
<path fill-rule="evenodd" clip-rule="evenodd" d="M148.458 82.3511C148.101 83.2929 146.708 83.5971 145.347 83.0303C143.985 82.4634 143.17 81.2403 143.526 80.2985C143.883 79.3565 145.276 79.0525 146.638 79.6194C147.999 80.1862 148.814 81.4092 148.458 82.3511Z" fill="#100F0D" fill-opacity="0.45"/>
<path fill-rule="evenodd" clip-rule="evenodd" d="M150.355 69.2751C150.28 68.271 149.031 67.5838 147.564 67.7402C146.097 67.897 144.968 68.838 145.043 69.8424C145.116 70.8468 146.366 71.534 147.833 71.3773C149.3 71.2207 150.428 70.2796 150.355 69.2751Z" fill="#100F0D" fill-opacity="0.45"/>
<path fill-rule="evenodd" clip-rule="evenodd" d="M175.092 53.0994C171.298 54.5014 169.088 52.4268 170.482 48.4257C171.713 44.8947 174.43 44.4942 176.641 47.4889C178.31 49.7485 177.805 52.0968 175.092 53.0994Z" fill="#100F0D" fill-opacity="0.45"/>
<path fill-rule="evenodd" clip-rule="evenodd" d="M184.767 50.3338C184.585 51.3281 183.178 51.9028 181.625 51.618C180.071 51.3332 178.96 50.2963 179.142 49.3022C179.325 48.308 180.731 47.733 182.284 48.0181C183.838 48.3029 184.949 49.3399 184.767 50.3338Z" fill="#100F0D" fill-opacity="0.45"/>
<path fill-rule="evenodd" clip-rule="evenodd" d="M183.169 55.39C182.813 56.3363 181.327 56.6529 179.848 56.0975C178.37 55.5423 177.46 54.3249 177.814 53.3787C178.17 52.4326 179.657 52.1159 181.136 52.6711C182.613 53.2266 183.524 54.4438 183.169 55.39Z" fill="#100F0D" fill-opacity="0.45"/>
<path fill-rule="evenodd" clip-rule="evenodd" d="M178.101 58.0424C177.594 58.9124 176.17 58.982 174.92 58.1979C173.671 57.4136 173.07 56.0728 173.577 55.2027C174.084 54.3328 175.509 54.2632 176.758 55.0474C178.008 55.8316 178.609 57.1724 178.101 58.0424Z" fill="#100F0D" fill-opacity="0.45"/>
<path fill-rule="evenodd" clip-rule="evenodd" d="M182.133 45.4599C182.225 44.4571 181.107 43.5729 179.635 43.4848C178.162 43.3968 176.893 44.1385 176.801 45.1413C176.708 46.144 177.826 47.0283 179.298 47.1161C180.772 47.2041 182.04 46.4626 182.133 45.4599Z" fill="#100F0D" fill-opacity="0.45"/>
<path fill-rule="evenodd" clip-rule="evenodd" d="M186.889 78.2413C183.094 79.643 180.885 77.5684 182.279 73.5673C183.51 70.0362 186.227 69.6359 188.439 72.6307C190.107 74.8904 189.602 77.2387 186.889 78.2413Z" fill="#100F0D" fill-opacity="0.45"/>
<path fill-rule="evenodd" clip-rule="evenodd" d="M196.564 75.4759C196.382 76.4699 194.975 77.0448 193.421 76.7599C191.868 76.4749 190.757 75.4383 190.94 74.444C191.122 73.4499 192.528 72.875 194.082 73.1599C195.636 73.4446 196.746 74.4815 196.564 75.4759Z" fill="#100F0D" fill-opacity="0.45"/>
<path fill-rule="evenodd" clip-rule="evenodd" d="M194.966 80.5318C194.61 81.4781 193.123 81.7947 191.645 81.2395C190.167 80.684 189.257 79.4671 189.611 78.5207C189.967 77.5745 191.454 77.2577 192.932 77.8131C194.411 78.3684 195.321 79.5858 194.966 80.5318Z" fill="#100F0D" fill-opacity="0.45"/>
<path fill-rule="evenodd" clip-rule="evenodd" d="M189.898 83.1843C189.391 84.0542 187.967 84.1238 186.718 83.3397C185.469 82.5556 184.867 81.2147 185.374 80.3447C185.881 79.4747 187.305 79.4051 188.555 80.1891C189.804 80.9734 190.405 82.3142 189.898 83.1843Z" fill="#100F0D" fill-opacity="0.45"/>
<path fill-rule="evenodd" clip-rule="evenodd" d="M193.93 70.6015C194.023 69.5987 192.904 68.7146 191.432 68.6266C189.959 68.5387 188.691 69.2802 188.598 70.283C188.506 71.2858 189.624 72.1699 191.096 72.2579C192.569 72.3458 193.837 71.6043 193.93 70.6015Z" fill="#100F0D" fill-opacity="0.45"/>
<path fill-rule="evenodd" clip-rule="evenodd" d="M217.114 56.8526C213.319 58.2546 211.11 56.18 212.504 52.1789C213.735 48.6478 216.452 48.2473 218.664 51.2419C220.332 53.5017 219.827 55.85 217.114 56.8526Z" fill="#100F0D" fill-opacity="0.45"/>
<path fill-rule="evenodd" clip-rule="evenodd" d="M226.789 54.0871C226.607 55.0813 225.2 55.6562 223.647 55.3713C222.093 55.0865 220.982 54.0495 221.165 53.0555C221.347 52.0613 222.754 51.4863 224.307 51.7713C225.861 52.0561 226.971 53.0931 226.789 54.0871Z" fill="#100F0D" fill-opacity="0.45"/>
<path fill-rule="evenodd" clip-rule="evenodd" d="M225.191 59.1433C224.835 60.0895 223.348 60.4063 221.871 59.8508C220.392 59.2956 219.481 58.0783 219.837 57.1321C220.192 56.186 221.679 55.8692 223.157 56.4244C224.636 56.9799 225.545 58.197 225.191 59.1433Z" fill="#100F0D" fill-opacity="0.45"/>
<path fill-rule="evenodd" clip-rule="evenodd" d="M220.123 61.7957C219.616 62.6657 218.193 62.7353 216.943 61.9511C215.694 61.1669 215.092 59.826 215.599 58.956C216.106 58.0861 217.531 58.0165 218.78 58.8007C220.029 59.5849 220.63 60.9258 220.123 61.7957Z" fill="#100F0D" fill-opacity="0.45"/>
<path fill-rule="evenodd" clip-rule="evenodd" d="M224.155 49.2131C224.248 48.2103 223.129 47.326 221.658 47.2381C220.184 47.15 218.916 47.8917 218.823 48.8945C218.731 49.8972 219.849 50.7815 221.321 50.8694C222.794 50.9573 224.063 50.2158 224.155 49.2131Z" fill="#100F0D" fill-opacity="0.45"/>
<path fill-rule="evenodd" clip-rule="evenodd" d="M228.911 81.9946C225.116 83.3965 222.907 81.3218 224.302 77.3207C225.532 73.7897 228.249 73.3891 230.461 76.3841C232.129 78.6437 231.624 80.9921 228.911 81.9946Z" fill="#100F0D" fill-opacity="0.45"/>
<path fill-rule="evenodd" clip-rule="evenodd" d="M238.586 79.229C238.404 80.2231 236.997 80.7981 235.443 80.5133C233.89 80.2282 232.779 79.1914 232.962 78.1972C233.143 77.2032 234.551 76.6282 236.104 76.913C237.658 77.1979 238.769 78.2349 238.586 79.229Z" fill="#100F0D" fill-opacity="0.45"/>
<path fill-rule="evenodd" clip-rule="evenodd" d="M236.988 84.2849C236.632 85.2312 235.146 85.5479 233.668 84.9927C232.189 84.4372 231.279 83.22 231.635 82.274C231.989 81.3278 233.476 81.0109 234.955 81.5663C236.433 82.1217 237.344 83.3389 236.988 84.2849Z" fill="#100F0D" fill-opacity="0.45"/>
<path fill-rule="evenodd" clip-rule="evenodd" d="M231.92 86.9375C231.413 87.8074 229.99 87.8769 228.74 87.093C227.491 86.3087 226.889 84.9678 227.396 84.0979C227.903 83.2279 229.328 83.1584 230.577 83.9423C231.827 84.7264 232.428 86.0675 231.92 86.9375Z" fill="#100F0D" fill-opacity="0.45"/>
<path fill-rule="evenodd" clip-rule="evenodd" d="M235.952 74.3548C236.046 73.3521 234.926 72.4679 233.454 72.3799C231.982 72.292 230.713 73.0336 230.62 74.0363C230.527 75.0391 231.646 75.9234 233.119 76.0112C234.591 76.0991 235.859 75.3576 235.952 74.3548Z" fill="#100F0D" fill-opacity="0.45"/>
<path fill-rule="evenodd" clip-rule="evenodd" d="M255.078 57.5117C251.284 58.9139 249.074 56.8391 250.469 52.8381C251.699 49.307 254.416 48.9066 256.628 51.9012C258.297 54.1609 257.792 56.5093 255.078 57.5117Z" fill="#100F0D" fill-opacity="0.45"/>
<path fill-rule="evenodd" clip-rule="evenodd" d="M264.754 54.7463C264.572 55.7406 263.164 56.3153 261.611 56.0304C260.058 55.7457 258.946 54.7086 259.129 53.7146C259.311 52.7204 260.719 52.1454 262.272 52.4305C263.825 52.7154 264.937 53.7523 264.754 54.7463Z" fill="#100F0D" fill-opacity="0.45"/>
<path fill-rule="evenodd" clip-rule="evenodd" d="M263.155 59.8025C262.799 60.7487 261.313 61.0654 259.835 60.51C258.356 59.9548 257.446 58.7374 257.802 57.7911C258.156 56.8452 259.643 56.5284 261.122 57.0836C262.6 57.6391 263.51 58.8562 263.155 59.8025Z" fill="#100F0D" fill-opacity="0.45"/>
<path fill-rule="evenodd" clip-rule="evenodd" d="M258.087 62.4549C257.58 63.3249 256.157 63.3944 254.907 62.6102C253.658 61.826 253.056 60.4851 253.563 59.6152C254.07 58.7451 255.495 58.6756 256.744 59.4597C257.994 60.2439 258.596 61.5848 258.087 62.4549Z" fill="#100F0D" fill-opacity="0.45"/>
<path fill-rule="evenodd" clip-rule="evenodd" d="M262.12 49.8721C262.213 48.8695 261.094 47.9853 259.622 47.8972C258.15 47.8092 256.88 48.5509 256.788 49.5537C256.695 50.5565 257.813 51.4407 259.286 51.5286C260.758 51.6166 262.027 50.8751 262.12 49.8721Z" fill="#100F0D" fill-opacity="0.45"/>
<path fill-rule="evenodd" clip-rule="evenodd" d="M266.875 82.6537C263.081 84.0556 260.871 81.9809 262.266 77.9797C263.496 74.4488 266.213 74.0482 268.425 77.0431C270.094 79.3028 269.589 81.6511 266.875 82.6537Z" fill="#100F0D" fill-opacity="0.45"/>
<path fill-rule="evenodd" clip-rule="evenodd" d="M276.552 79.8882C276.369 80.8823 274.961 81.4573 273.408 81.1725C271.855 80.8873 270.743 79.8506 270.926 78.8565C271.108 77.8624 272.515 77.2874 274.069 77.5721C275.622 77.857 276.734 78.8941 276.552 79.8882Z" fill="#100F0D" fill-opacity="0.45"/>
<path fill-rule="evenodd" clip-rule="evenodd" d="M274.952 84.944C274.596 85.8903 273.11 86.2071 271.632 85.6519C270.153 85.0964 269.243 83.8793 269.599 82.933C269.954 81.9869 271.44 81.6701 272.919 82.2255C274.397 82.7809 275.308 83.9981 274.952 84.944Z" fill="#100F0D" fill-opacity="0.45"/>
<path fill-rule="evenodd" clip-rule="evenodd" d="M269.885 87.5967C269.378 88.4666 267.954 88.5361 266.704 87.7522C265.455 86.9679 264.853 85.627 265.36 84.757C265.867 83.8871 267.292 83.8176 268.541 84.6015C269.791 85.3857 270.393 86.7267 269.885 87.5967Z" fill="#100F0D" fill-opacity="0.45"/>
<path fill-rule="evenodd" clip-rule="evenodd" d="M273.916 75.014C274.01 74.0113 272.892 73.127 271.419 73.039C269.947 72.9511 268.677 73.6928 268.584 74.6954C268.492 75.6982 269.61 76.5825 271.083 76.6704C272.555 76.7583 273.824 76.0168 273.916 75.014Z" fill="#100F0D" fill-opacity="0.45"/>
<path fill-rule="evenodd" clip-rule="evenodd" d="M294.128 53.2463C290.335 54.6485 288.124 52.5738 289.519 48.5726C290.75 45.0417 293.467 44.6411 295.678 47.6358C297.347 49.8954 296.843 52.2438 294.128 53.2463Z" fill="#100F0D" fill-opacity="0.45"/>
<path fill-rule="evenodd" clip-rule="evenodd" d="M303.805 50.4809C303.622 51.4751 302.215 52.0498 300.662 51.7649C299.109 51.4801 297.997 50.4432 298.179 49.4493C298.362 48.4549 299.769 47.8801 301.322 48.1651C302.875 48.4499 303.987 49.4868 303.805 50.4809Z" fill="#100F0D" fill-opacity="0.45"/>
<path fill-rule="evenodd" clip-rule="evenodd" d="M302.206 55.537C301.85 56.4832 300.364 56.7999 298.885 56.2445C297.407 55.6893 296.497 54.4721 296.852 53.5257C297.207 52.5798 298.694 52.2629 300.172 52.8182C301.65 53.3737 302.561 54.5907 302.206 55.537Z" fill="#100F0D" fill-opacity="0.45"/>
<path fill-rule="evenodd" clip-rule="evenodd" d="M297.138 58.1894C296.631 59.0594 295.207 59.1289 293.957 58.3447C292.708 57.5606 292.107 56.2196 292.614 55.3497C293.121 54.4797 294.545 54.4101 295.794 55.1943C297.044 55.9785 297.646 57.3194 297.138 58.1894Z" fill="#100F0D" fill-opacity="0.45"/>
<path fill-rule="evenodd" clip-rule="evenodd" d="M301.17 45.6069C301.263 44.6042 300.145 43.7199 298.673 43.6319C297.2 43.5438 295.931 44.2855 295.838 45.2883C295.746 46.2911 296.864 47.1753 298.336 47.263C299.809 47.3511 301.078 46.6096 301.17 45.6069Z" fill="#100F0D" fill-opacity="0.45"/>
<path fill-rule="evenodd" clip-rule="evenodd" d="M305.926 78.3883C302.131 79.7902 299.922 77.7156 301.316 73.7145C302.547 70.1834 305.264 69.7828 307.476 72.7777C309.144 75.0374 308.639 77.3857 305.926 78.3883Z" fill="#100F0D" fill-opacity="0.45"/>
<path fill-rule="evenodd" clip-rule="evenodd" d="M315.602 75.6228C315.42 76.6168 314.012 77.1918 312.459 76.907C310.906 76.6218 309.794 75.5853 309.976 74.591C310.159 73.597 311.565 73.0219 313.12 73.3069C314.673 73.5915 315.784 74.6286 315.602 75.6228Z" fill="#100F0D" fill-opacity="0.45"/>
<path fill-rule="evenodd" clip-rule="evenodd" d="M314.003 80.6787C313.648 81.6249 312.161 81.9417 310.682 81.3865C309.205 80.8309 308.294 79.614 308.649 78.6678C309.005 77.7215 310.491 77.4047 311.97 77.9602C313.448 78.5154 314.358 79.7326 314.003 80.6787Z" fill="#100F0D" fill-opacity="0.45"/>
<path fill-rule="evenodd" clip-rule="evenodd" d="M308.936 83.3312C308.428 84.2013 307.005 84.2707 305.754 83.4867C304.506 82.7024 303.904 81.3616 304.411 80.4916C304.919 79.6216 306.343 79.5522 307.592 80.336C308.842 81.1204 309.443 82.4612 308.936 83.3312Z" fill="#100F0D" fill-opacity="0.45"/>
<path fill-rule="evenodd" clip-rule="evenodd" d="M312.967 70.7485C313.06 69.7458 311.941 68.8617 310.47 68.7735C308.996 68.6857 307.728 69.4273 307.635 70.43C307.543 71.4327 308.661 72.317 310.133 72.405C311.606 72.4929 312.875 71.7514 312.967 70.7485Z" fill="#100F0D" fill-opacity="0.45"/>
<path fill-rule="evenodd" clip-rule="evenodd" d="M333.435 46.0986C330.093 48.3758 327.447 46.8967 327.833 42.6771C328.175 38.9533 330.714 37.9082 333.583 40.2797C335.749 42.0692 335.827 44.47 333.435 46.0986Z" fill="#100F0D" fill-opacity="0.45"/>
<path fill-rule="evenodd" clip-rule="evenodd" d="M342.157 41.0768C342.22 42.0854 340.994 42.9833 339.418 43.0823C337.841 43.1811 336.513 42.4437 336.45 41.4348C336.386 40.4262 337.612 39.5283 339.188 39.4294C340.765 39.3305 342.093 40.0678 342.157 41.0768Z" fill="#100F0D" fill-opacity="0.45"/>
<path fill-rule="evenodd" clip-rule="evenodd" d="M341.828 46.3694C341.711 47.3733 340.344 48.04 338.776 47.8584C337.207 47.6766 336.03 46.7156 336.147 45.7116C336.263 44.7076 337.629 44.0409 339.197 44.2224C340.766 44.4043 341.943 45.3653 341.828 46.3694Z" fill="#100F0D" fill-opacity="0.45"/>
<path fill-rule="evenodd" clip-rule="evenodd" d="M337.551 50.1675C337.269 51.1343 335.904 51.546 334.502 51.0872C333.101 50.6281 332.193 49.4724 332.474 48.5056C332.756 47.5388 334.122 47.1271 335.524 47.586C336.926 48.0451 337.833 49.201 337.551 50.1675Z" fill="#100F0D" fill-opacity="0.45"/>
<path fill-rule="evenodd" clip-rule="evenodd" d="M338.423 36.9834C338.271 35.9881 336.971 35.4007 335.522 35.6707C334.072 35.9407 333.02 36.9675 333.172 37.9631C333.324 38.9586 334.623 39.5463 336.073 39.2759C337.523 39.0053 338.576 37.9792 338.423 36.9834Z" fill="#100F0D" fill-opacity="0.45"/>
<path fill-rule="evenodd" clip-rule="evenodd" d="M350.959 67.6444C347.616 69.9215 344.971 68.4426 345.357 64.223C345.698 60.4992 348.237 59.4542 351.107 61.8255C353.272 63.615 353.35 66.0158 350.959 67.6444Z" fill="#100F0D" fill-opacity="0.45"/>
<path fill-rule="evenodd" clip-rule="evenodd" d="M359.68 62.6226C359.743 63.6313 358.517 64.529 356.941 64.6281C355.364 64.7269 354.036 63.9893 353.973 62.9806C353.909 61.9719 355.135 61.0742 356.711 60.9751C358.288 60.8763 359.616 61.6137 359.68 62.6226Z" fill="#100F0D" fill-opacity="0.45"/>
<path fill-rule="evenodd" clip-rule="evenodd" d="M359.351 67.9151C359.235 68.9192 357.868 69.5858 356.3 69.4041C354.731 69.2225 353.554 68.2615 353.67 67.2572C353.786 66.2532 355.152 65.5866 356.72 65.7683C358.289 65.95 359.466 66.9109 359.351 67.9151Z" fill="#100F0D" fill-opacity="0.45"/>
<path fill-rule="evenodd" clip-rule="evenodd" d="M355.074 71.7134C354.793 72.6801 353.427 73.0919 352.026 72.6328C350.625 72.1738 349.716 71.018 349.999 70.0512C350.28 69.0846 351.646 68.6729 353.048 69.1319C354.448 69.591 355.357 70.7466 355.074 71.7134Z" fill="#100F0D" fill-opacity="0.45"/>
<path fill-rule="evenodd" clip-rule="evenodd" d="M355.946 58.5294C355.794 57.5339 354.495 56.9463 353.045 57.2167C351.595 57.4872 350.543 58.5136 350.695 59.509C350.847 60.5045 352.146 61.0922 353.597 60.8216C355.046 60.5512 356.099 59.5251 355.946 58.5294Z" fill="#100F0D" fill-opacity="0.45"/>
<path fill-rule="evenodd" clip-rule="evenodd" d="M369.56 30.4698C366.659 33.2883 363.797 32.2863 363.452 28.0625C363.148 24.3358 365.469 22.8695 368.704 24.7119C371.144 26.1025 371.635 28.4533 369.56 30.4698Z" fill="#100F0D" fill-opacity="0.45"/>
<path fill-rule="evenodd" clip-rule="evenodd" d="M377.286 24.0217C377.521 25.0045 376.468 26.1002 374.932 26.4685C373.397 26.8379 371.961 26.3397 371.725 25.3569C371.489 24.3741 372.543 23.2784 374.078 22.9101C375.613 22.5407 377.05 23.0389 377.286 24.0217Z" fill="#100F0D" fill-opacity="0.45"/>
<path fill-rule="evenodd" clip-rule="evenodd" d="M377.872 29.2927C377.931 30.3015 376.699 31.1928 375.123 31.2843C373.546 31.3747 372.221 30.6302 372.163 29.6215C372.105 28.6127 373.335 27.7214 374.912 27.6299C376.489 27.5395 377.814 28.284 377.872 29.2927Z" fill="#100F0D" fill-opacity="0.45"/>
<path fill-rule="evenodd" clip-rule="evenodd" d="M374.313 33.7696C374.201 34.7704 372.928 35.411 371.468 35.1997C370.008 34.9885 368.915 34.0068 369.026 33.0059C369.138 32.005 370.411 31.3645 371.872 31.5758C373.332 31.787 374.425 32.7687 374.313 33.7696Z" fill="#100F0D" fill-opacity="0.45"/>
<path fill-rule="evenodd" clip-rule="evenodd" d="M372.904 20.6328C372.583 19.6782 371.202 19.3224 369.82 19.8386C368.438 20.3538 367.578 21.5455 367.899 22.5012C368.221 23.4547 369.602 23.8105 370.983 23.2943C372.365 22.7791 373.226 21.5862 372.904 20.6328Z" fill="#100F0D" fill-opacity="0.45"/>
<path fill-rule="evenodd" clip-rule="evenodd" d="M390.528 48.6792C387.627 51.4976 384.766 50.4958 384.42 46.2725C384.116 42.5457 386.438 41.0791 389.673 42.9216C392.113 44.3118 392.604 46.6635 390.528 48.6792Z" fill="#100F0D" fill-opacity="0.45"/>
<path fill-rule="evenodd" clip-rule="evenodd" d="M398.255 42.2318C398.491 43.2146 397.437 44.3101 395.902 44.6787C394.366 45.0473 392.93 44.5494 392.694 43.5666C392.458 42.5837 393.512 41.4882 395.047 41.1196C396.583 40.7513 398.019 41.249 398.255 42.2318Z" fill="#100F0D" fill-opacity="0.45"/>
<path fill-rule="evenodd" clip-rule="evenodd" d="M398.84 47.5022C398.899 48.5113 397.668 49.4031 396.092 49.4939C394.515 49.5851 393.19 48.8406 393.131 47.8316C393.073 46.8226 394.303 45.931 395.88 45.8399C397.457 45.749 398.782 46.4932 398.84 47.5022Z" fill="#100F0D" fill-opacity="0.45"/>
<path fill-rule="evenodd" clip-rule="evenodd" d="M395.282 51.9795C395.171 52.9804 393.897 53.6207 392.436 53.4098C390.977 53.1988 389.883 52.2165 389.995 51.2155C390.107 50.2147 391.381 49.5744 392.841 49.7852C394.3 49.9963 395.394 50.9788 395.282 51.9795Z" fill="#100F0D" fill-opacity="0.45"/>
<path fill-rule="evenodd" clip-rule="evenodd" d="M393.872 38.8422C393.551 37.8879 392.171 37.5324 390.788 38.0483C389.406 38.5641 388.547 39.756 388.867 40.7105C389.189 41.6649 390.57 42.0205 391.951 41.5045C393.334 40.9887 394.194 39.7965 393.872 38.8422Z" fill="#100F0D" fill-opacity="0.45"/>
<path fill-rule="evenodd" clip-rule="evenodd" d="M396.563 10.8669C393.662 13.6854 390.801 12.6845 390.455 8.46071C390.151 4.73397 392.473 3.26769 395.708 5.11015C398.148 6.49963 398.637 8.85157 396.563 10.8669Z" fill="#100F0D" fill-opacity="0.45"/>
<path fill-rule="evenodd" clip-rule="evenodd" d="M404.29 4.41996C404.525 5.40275 403.472 6.49853 401.935 6.86679C400.4 7.23506 398.964 6.73801 398.728 5.75521C398.492 4.77241 399.546 3.67665 401.081 3.30838C402.617 2.93898 404.054 3.43716 404.29 4.41996Z" fill="#100F0D" fill-opacity="0.45"/>
<path fill-rule="evenodd" clip-rule="evenodd" d="M404.875 9.69093C404.934 10.6997 403.702 11.591 402.125 11.6825C400.549 11.7729 399.223 11.0284 399.166 10.0197C399.108 9.01087 400.338 8.11958 401.915 8.02808C403.492 7.9377 404.817 8.68102 404.875 9.69093Z" fill="#100F0D" fill-opacity="0.45"/>
<path fill-rule="evenodd" clip-rule="evenodd" d="M401.317 14.1678C401.205 15.1686 399.932 15.8091 398.471 15.5979C397.011 15.3867 395.918 14.405 396.03 13.4041C396.142 12.4032 397.415 11.7627 398.875 11.974C400.335 12.1841 401.428 13.1669 401.317 14.1678Z" fill="#100F0D" fill-opacity="0.45"/>
<path fill-rule="evenodd" clip-rule="evenodd" d="M399.906 1.03101C399.586 0.0764514 398.204 -0.279388 396.823 0.236865C395.441 0.751987 394.581 1.94378 394.902 2.89834C395.223 3.8529 396.604 4.20874 397.986 3.69248C399.368 3.17736 400.227 1.98444 399.906 1.03101Z" fill="#100F0D" fill-opacity="0.45"/>
<path fill-rule="evenodd" clip-rule="evenodd" d="M417.532 29.077C414.63 31.8955 411.769 30.8935 411.424 26.6708C411.12 22.9441 413.441 21.4778 416.677 23.3203C419.117 24.7098 419.606 27.0617 417.532 29.077Z" fill="#100F0D" fill-opacity="0.45"/>
</svg>
