<svg width="120" height="120" viewBox="0 0 120 120" fill="none" xmlns="http://www.w3.org/2000/svg">
<path d="M70 45H57.5C53.358 45 50 48.3579 50 52.5C50 56.642 53.358 60 57.5 60H62.5C66.642 60 70 63.358 70 67.5C70 71.642 66.642 75 62.5 75H50M60 40V45M60 75V80M90 60H90.05M30 60H30.05M10 41V79C10 84.6005 10 87.401 11.0899 89.54C12.0486 91.4215 13.5785 92.9515 15.4601 93.91C17.5992 95 20.3994 95 26 95H94C99.6005 95 102.401 95 104.54 93.91C106.422 92.9515 107.951 91.4215 108.91 89.54C110 87.401 110 84.6005 110 79V41C110 35.3995 110 32.5992 108.91 30.4601C107.951 28.5785 106.422 27.0487 104.54 26.0899C102.401 25 99.6005 25 94 25H26C20.3995 25 17.5992 25 15.4601 26.0899C13.5785 27.0486 12.0486 28.5785 11.0899 30.4601C10 32.5992 10 35.3994 10 41ZM92.5 60C92.5 61.3805 91.3805 62.5 90 62.5C88.6195 62.5 87.5 61.3805 87.5 60C87.5 58.6195 88.6195 57.5 90 57.5C91.3805 57.5 92.5 58.6195 92.5 60ZM32.5 60C32.5 61.3805 31.3807 62.5 30 62.5C28.6193 62.5 27.5 61.3805 27.5 60C27.5 58.6195 28.6193 57.5 30 57.5C31.3807 57.5 32.5 58.6195 32.5 60Z" stroke="black" stroke-width="2" stroke-linecap="round" stroke-linejoin="round"/>
</svg>
