<svg width="38" height="38" viewBox="0 0 38 38" fill="none" xmlns="http://www.w3.org/2000/svg">
<path d="M19 12.6667V25.3333M12.6667 19H25.3333M12.35 33.25H25.65C28.3103 33.25 29.6403 33.25 30.6565 32.7323C31.5503 32.2769 32.2769 31.5503 32.7323 30.6565C33.25 29.6403 33.25 28.3103 33.25 25.65V12.35C33.25 9.68975 33.25 8.35962 32.7323 7.34355C32.2769 6.44977 31.5503 5.72312 30.6565 5.26772C29.6403 4.75 28.3103 4.75 25.65 4.75H12.35C9.68975 4.75 8.35962 4.75 7.34355 5.26772C6.44977 5.72312 5.72312 6.44977 5.26772 7.34355C4.75 8.35962 4.75 9.68975 4.75 12.35V25.65C4.75 28.3103 4.75 29.6403 5.26772 30.6565C5.72312 31.5503 6.44977 32.2769 7.34355 32.7323C8.35962 33.25 9.68975 33.25 12.35 33.25Z" stroke="white" stroke-width="2" stroke-linecap="round" stroke-linejoin="round"/>
</svg>
