<svg width="35" height="35" viewBox="0 0 35 35" fill="none" xmlns="http://www.w3.org/2000/svg">
<path d="M15.3117 19.6876L30.6242 4.37501M15.4978 20.1659L19.3304 30.0213C19.668 30.8896 19.8369 31.3236 20.0801 31.4503C20.291 31.5603 20.5423 31.5605 20.7532 31.4508C20.9966 31.3243 21.166 30.8905 21.5046 30.0226L31.1155 5.39467C31.4213 4.61128 31.5741 4.21959 31.4904 3.9693C31.4178 3.75193 31.2473 3.58135 31.0299 3.50874C30.7796 3.42513 30.3879 3.57798 29.6045 3.88369L4.9766 13.4946C4.10877 13.8333 3.67487 14.0026 3.54842 14.246C3.4388 14.457 3.43895 14.7082 3.54882 14.9191C3.67555 15.1624 4.10966 15.3311 4.97787 15.6688L14.8334 19.5015C15.0095 19.57 15.0976 19.6043 15.1718 19.6572C15.2376 19.7041 15.2951 19.7617 15.342 19.8274C15.395 19.9015 15.4292 19.9897 15.4978 20.1659Z" stroke="black" stroke-width="2" stroke-linecap="round" stroke-linejoin="round"/>
</svg>
