<svg width="104" height="111" viewBox="0 0 104 111" fill="none" xmlns="http://www.w3.org/2000/svg">
<path fill-rule="evenodd" clip-rule="evenodd" d="M35.1583 48.9395C35.1655 49.0052 35.2059 49.0455 35.2794 49.0605C35.4005 40.0596 35.4408 31.0583 35.4005 22.0566C36.2078 22.0566 37.015 22.0566 37.8223 22.0566C37.8223 33.9642 37.8223 45.8718 37.8223 57.7793C40.6883 57.7793 43.5541 57.7793 46.42 57.7793C46.42 45.8718 46.42 33.9642 46.42 22.0566C47.2273 22.0566 48.0345 22.0566 48.8419 22.0566C48.8016 31.0987 48.8419 40.1403 48.963 49.1816C49.0365 49.1666 49.0768 49.1263 49.0841 49.0605C49.9174 47.1918 50.7852 45.3351 51.6876 43.4902C52.9907 41.5033 54.8272 40.3529 57.1973 40.0391C60.265 39.9987 63.3328 39.9583 66.4005 39.918C61.6242 34.8994 56.7603 29.9547 51.8087 25.084C51.7279 23.9134 51.7279 22.7429 51.8087 21.5723C58.8317 17.4757 65.8149 13.3182 72.7579 9.09961C72.8387 16.7285 72.8387 24.3574 72.7579 31.9863C71.7217 34.5835 70.652 37.1668 69.5489 39.7363C70.1526 40.4005 70.7783 41.0464 71.4259 41.6738C71.4864 48.132 71.5066 54.5904 71.4864 61.0488C65.7547 61.0488 60.0228 61.0488 54.2911 61.0488C54.2911 60.1608 54.2911 59.2727 54.2911 58.3848C56.6213 58.4242 58.9423 58.3839 61.254 58.2637C63.8269 54.5307 66.3698 50.7768 68.8829 47.002C68.9434 45.5494 68.9637 44.0963 68.9434 42.6426C66.3197 42.6426 63.6961 42.6426 61.0723 42.6426C61.2023 46.973 59.1032 49.0517 54.7755 48.8789C51.6508 49.7836 49.7334 51.822 49.0235 54.9941C48.9832 56.4876 48.9427 57.9812 48.9024 59.4746C46.9184 61.4785 45.0011 63.5371 43.1505 65.6504C43.5674 66.2493 44.0518 66.7942 44.6036 67.2852C45.3953 68.0168 46.2026 68.7231 47.0255 69.4043C50.0931 69.4851 53.1609 69.5657 56.2286 69.6465C52.1592 73.5744 48.1026 77.5301 44.0587 81.5137C43.3178 82.4165 42.672 83.3853 42.1212 84.4199C41.6166 83.4909 41.0514 82.6029 40.4259 81.7559C36.2446 77.6148 32.0266 73.5179 27.7716 69.4648C31.0008 69.4245 34.2299 69.3841 37.4591 69.3438C38.7691 68.1751 40.0203 66.9439 41.213 65.6504C39.2774 63.5735 37.3197 61.5149 35.3399 59.4746C35.3267 57.7341 35.246 55.9984 35.0977 54.2676C33.744 50.413 31.0194 48.5765 26.9239 48.7578C24.7309 48.098 23.4999 46.6246 23.2305 44.3379C23.1701 43.7742 23.1499 43.2092 23.17 42.6426C20.627 42.6426 18.0841 42.6426 15.5411 42.6426C15.5209 44.177 15.5411 45.7108 15.6016 47.2441C18.1342 50.8963 20.6368 54.5695 23.1095 58.2637C25.3808 58.3839 27.6614 58.4242 29.9513 58.3848C29.9513 59.2727 29.9513 60.1608 29.9513 61.0488C24.2598 61.0488 18.5684 61.0488 12.877 61.0488C12.8568 54.5904 12.877 48.132 12.9376 41.6738C13.5512 41.0509 14.1364 40.405 14.6934 39.7363C13.6356 37.1481 12.5659 34.5648 11.4845 31.9863C11.3836 24.3571 11.4037 16.7282 11.545 9.09961C18.5379 13.2115 25.5008 17.369 32.4337 21.5723C32.5144 22.7429 32.5144 23.9134 32.4337 25.084C27.482 29.9547 22.6182 34.8994 17.8419 39.918C20.9903 39.9583 24.1388 39.9987 27.2872 40.0391C29.6362 40.4125 31.4325 41.6032 32.6759 43.6113C33.5626 45.3652 34.3901 47.1412 35.1583 48.9395Z" fill="#030303"/>
<path fill-rule="evenodd" clip-rule="evenodd" d="M14.0879 13.7012C19.5401 16.8414 24.9691 20.0301 30.375 23.2676C30.4558 23.3483 30.4558 23.429 30.375 23.5098C28.5569 25.3076 26.7607 27.1241 24.9863 28.959C24.8816 29.0901 24.7605 29.1102 24.623 29.0195C20.9397 24.0256 17.428 18.9195 14.0879 13.7012Z" fill="#FCFCFA"/>
<path fill-rule="evenodd" clip-rule="evenodd" d="M70.0332 13.7012C70.1227 13.6853 70.2035 13.7055 70.2754 13.7617C66.8724 18.9535 63.3204 24.0394 59.6191 29.0195C59.5384 29.1003 59.4577 29.1003 59.377 29.0195C57.5202 27.1628 55.6634 25.3059 53.8066 23.4492C59.1727 20.1201 64.5816 16.8708 70.0332 13.7012Z" fill="white"/>
<path fill-rule="evenodd" clip-rule="evenodd" d="M14.0878 18.4238C17.0382 22.5862 19.9445 26.7841 22.8065 31.0176C22.746 31.1387 22.6854 31.2598 22.6249 31.3809C20.5613 33.4242 18.5228 35.4828 16.5097 37.5566C15.5898 35.4425 14.7422 33.3032 13.9667 31.1387C13.9265 26.8797 13.9669 22.6414 14.0878 18.4238Z" fill="white"/>
<path fill-rule="evenodd" clip-rule="evenodd" d="M70.2754 18.3027C70.4163 22.5206 70.4366 26.7588 70.3359 31.0176C69.4942 33.2208 68.6061 35.4004 67.6719 37.5566C65.5916 35.3957 63.5128 33.2361 61.4355 31.0781C64.3156 26.7666 67.2622 22.5081 70.2754 18.3027Z" fill="white"/>
<path fill-rule="evenodd" clip-rule="evenodd" d="M43.3926 22.0566C43.3926 26.0527 43.3926 30.0488 43.3926 34.0449C42.5852 34.0449 41.778 34.0449 40.9707 34.0449C40.9707 30.0488 40.9707 26.0527 40.9707 22.0566C41.778 22.0566 42.5852 22.0566 43.3926 22.0566Z" fill="#050505"/>
<path fill-rule="evenodd" clip-rule="evenodd" d="M43.3925 22.0567C42.5851 22.0567 41.7779 22.0567 40.9706 22.0567C40.9706 26.0528 40.9706 30.0489 40.9706 34.045C40.8497 30.0292 40.8093 25.9927 40.8495 21.9356C41.7198 21.8962 42.5675 21.9367 43.3925 22.0567Z" fill="#AAAAA9"/>
<path fill-rule="evenodd" clip-rule="evenodd" d="M14.0878 18.4238C13.9669 22.6414 13.9265 26.8797 13.9667 31.1387C13.8257 26.8401 13.8055 22.5212 13.9061 18.1816C13.9929 18.2475 14.0535 18.3283 14.0878 18.4238Z" fill="#B8B8B6"/>
<path fill-rule="evenodd" clip-rule="evenodd" d="M37.8223 22.0567C37.0149 22.0567 36.2077 22.0567 35.4004 22.0567C35.4407 31.0583 35.4004 40.0597 35.2793 49.0606C35.2058 49.0456 35.1655 49.0052 35.1582 48.9395C35.2792 39.9586 35.3196 30.9573 35.2793 21.9356C36.1496 21.8962 36.9973 21.9367 37.8223 22.0567Z" fill="#2A2A28"/>
<path fill-rule="evenodd" clip-rule="evenodd" d="M46.4199 22.0567C47.2449 21.9367 48.0926 21.8962 48.9629 21.9356C48.9226 30.9976 48.963 40.0393 49.084 49.0606C49.0767 49.1263 49.0364 49.1667 48.9629 49.1817C48.8418 40.1403 48.8015 31.0987 48.8418 22.0567C48.0345 22.0567 47.2273 22.0567 46.4199 22.0567Z" fill="#323231"/>
<path fill-rule="evenodd" clip-rule="evenodd" d="M15.6619 51.7246C17.1288 53.9106 18.5819 56.1105 20.0213 58.3242C18.5283 58.3848 17.0348 58.405 15.5408 58.3848C15.5008 56.1436 15.5412 53.9236 15.6619 51.7246Z" fill="white"/>
<path fill-rule="evenodd" clip-rule="evenodd" d="M68.7012 51.7246C68.8219 53.9236 68.8622 56.1436 68.8223 58.3848C67.3282 58.405 65.8348 58.3848 64.3418 58.3242C65.7307 56.0702 67.1839 53.8703 68.7012 51.7246Z" fill="white"/>
<path fill-rule="evenodd" clip-rule="evenodd" d="M68.8223 58.3848C68.8622 56.1436 68.8219 53.9236 68.7012 51.7246C68.7354 51.6291 68.796 51.5483 68.8828 51.4824C68.9832 53.8039 68.963 56.1047 68.8223 58.3848Z" fill="#8B8B8B"/>
<path fill-rule="evenodd" clip-rule="evenodd" d="M15.6623 51.7246C15.5416 53.9236 15.5012 56.1436 15.5412 58.3848C15.4005 56.1047 15.3803 53.8039 15.4806 51.4824C15.5675 51.5483 15.628 51.6291 15.6623 51.7246Z" fill="#9D9E9D"/>
<path fill-rule="evenodd" clip-rule="evenodd" d="M30.9201 63.4708C31.8564 63.3297 32.4821 63.693 32.7971 64.5606C32.8576 65.7918 32.2724 66.377 31.0412 66.3165C30.2071 65.9602 29.8641 65.3345 30.0119 64.4395C30.2166 64.0131 30.5193 63.6902 30.9201 63.4708Z" fill="#090908"/>
<path fill-rule="evenodd" clip-rule="evenodd" d="M52.4748 63.4707C53.9371 63.4571 54.5224 64.1433 54.2307 65.5292C53.428 66.5849 52.5804 66.6253 51.6877 65.6503C51.2545 64.6518 51.5168 63.9252 52.4748 63.4707Z" fill="#0A0A09"/>
<path fill-rule="evenodd" clip-rule="evenodd" d="M24.7439 63.834C20.8286 63.834 16.9132 63.834 12.9978 63.834C12.9978 64.5606 12.9978 65.2871 12.9978 66.0137C12.878 65.2696 12.8376 64.5027 12.8767 63.7129C16.8532 63.6727 20.8089 63.7132 24.7439 63.834Z" fill="#3F3F3E"/>
<path fill-rule="evenodd" clip-rule="evenodd" d="M24.7441 63.834C24.7441 64.5605 24.7441 65.2871 24.7441 66.0137C20.8288 66.0137 16.9134 66.0137 12.998 66.0137C12.998 65.2871 12.998 64.5605 12.998 63.834C16.9134 63.834 20.8288 63.834 24.7441 63.834Z" fill="black"/>
<path fill-rule="evenodd" clip-rule="evenodd" d="M71.3652 63.834C71.3652 64.5606 71.3652 65.2871 71.3652 66.0137C67.4499 66.0137 63.5345 66.0137 59.6191 66.0137C59.6191 65.2468 59.6191 64.4798 59.6191 63.7129C63.5552 63.6727 67.4706 63.7132 71.3652 63.834Z" fill="#050505"/>
<path fill-rule="evenodd" clip-rule="evenodd" d="M71.3652 63.834C71.4851 64.5781 71.5254 65.345 71.4863 66.1348C67.5099 66.175 63.5542 66.1345 59.6191 66.0137C63.5345 66.0137 67.4499 66.0137 71.3652 66.0137C71.3652 65.2871 71.3652 64.5605 71.3652 63.834Z" fill="#A5A5A4"/>
<path fill-rule="evenodd" clip-rule="evenodd" d="M22.6855 67.2246C23.3927 67.6073 23.9982 68.132 24.502 68.7988C23.0154 70.0069 21.6026 71.2986 20.2637 72.6738C20.1589 72.805 20.0378 72.8251 19.9004 72.7344C19.218 72.1733 18.5722 71.5679 17.9629 70.918C19.1738 70.03 20.3848 69.1419 21.5957 68.2539C22.0143 67.9649 22.3776 67.6218 22.6855 67.2246Z" fill="#060606"/>
<path fill-rule="evenodd" clip-rule="evenodd" d="M61.3145 67.2246C61.4867 67.2499 61.6481 67.3105 61.7989 67.4062C63.2892 68.6356 64.8231 69.8061 66.4004 70.918C65.7546 71.5234 65.1087 72.1289 64.4629 72.7344C64.3418 72.8151 64.2207 72.8151 64.0996 72.7344C62.7434 71.4182 61.3508 70.1467 59.9219 68.9199C59.8411 68.7988 59.8411 68.6777 59.9219 68.5566C60.3735 68.0846 60.8376 67.6406 61.3145 67.2246Z" fill="#060606"/>
<path fill-rule="evenodd" clip-rule="evenodd" d="M42.0605 68.6777C43.3211 69.7155 44.5321 70.8256 45.6934 72.0078C47.1062 72.0481 48.5188 72.0886 49.9316 72.1289C47.3651 74.7359 44.7615 77.299 42.1211 79.8184C39.5514 77.2486 36.9883 74.6856 34.4316 72.1289C35.8444 72.0886 37.2571 72.0481 38.6699 72.0078C39.7874 70.87 40.9177 69.7599 42.0605 68.6777Z" fill="#FCFCFA"/>
<path fill-rule="evenodd" clip-rule="evenodd" d="M47.0254 69.4043C50.1741 69.3841 53.3225 69.4043 56.4707 69.4649C56.4048 69.5517 56.3241 69.6122 56.2285 69.6465C53.1608 69.5657 50.0931 69.4851 47.0254 69.4043Z" fill="#383837"/>
<path fill-rule="evenodd" clip-rule="evenodd" d="M27.166 73.1582C30.9241 76.5361 34.5972 80.0277 38.1856 83.6328C39.4626 84.8699 40.7744 86.0606 42.1211 87.2051C47.1193 82.5907 52.0639 77.9085 56.9551 73.1582C57.5606 73.6829 58.1257 74.248 58.6504 74.8535C53.1622 80.16 47.6524 85.4478 42.1211 90.7168C36.5582 85.5577 31.0685 80.3104 25.6524 74.9746C25.5716 74.8938 25.5716 74.8132 25.6524 74.7324C26.1816 74.2236 26.6862 73.6988 27.166 73.1582Z" fill="#040404"/>
</svg>
